<?xml version="1.0" encoding="utf-8"?>
<!-- Generator: Adobe Illustrator 27.0.0, SVG Export Plug-In . SVG Version: 6.00 Build 0)  -->
<svg version="1.1" id="Layer_1" xmlns="http://www.w3.org/2000/svg" xmlns:xlink="http://www.w3.org/1999/xlink" x="0px" y="0px"
	 viewBox="0 0 800 800" style="enable-background:new 0 0 800 800;" xml:space="preserve">
<style type="text/css">
	.st0{fill-rule:evenodd;clip-rule:evenodd;fill:#FFFFFF;}
</style>
<path class="st0" d="M380.9,39.4c11.5-8,26.8-8,38.2,0l333.3,233.3c8.9,6.2,14.2,16.4,14.2,27.3v233.3c0,10.9-5.3,21.1-14.2,27.3
	L419.1,794c-11.5,8-26.8,8-38.2,0L47.6,560.6c-8.9-6.2-14.2-16.4-14.2-27.3V300c0-10.9,5.3-21.1,14.2-27.3L380.9,39.4z M100,364
	v105.3l75.2-52.6L100,364z M233.3,457.4l-108.5,76l241.9,169.3v-152L233.3,457.4z M433.3,550.7v152l241.9-169.3l-108.5-76
	L433.3,550.7z M624.8,416.7l75.2,52.6V364L624.8,416.7z M675.2,300l-108.5,76l-133.3-93.3v-152L675.2,300z M366.7,130.7v152
	L233.3,376l-108.5-76L366.7,130.7z M400,340.7l-108.5,76l108.5,76l108.5-76L400,340.7z"/>
</svg>
