<?xml version="1.0" encoding="utf-8"?>
<!-- Generator: Adobe Illustrator 27.0.0, SVG Export Plug-In . SVG Version: 6.00 Build 0)  -->
<svg version="1.1" id="Layer_1" xmlns="http://www.w3.org/2000/svg" xmlns:xlink="http://www.w3.org/1999/xlink" x="0px" y="0px"
	 viewBox="0 0 300 72" style="enable-background:new 0 0 300 72;" xml:space="preserve">
<style type="text/css">
	.st0{fill:#FFFFFF;}
	.st1{display:none;fill:none;}
</style>
<g>
	<g>
		<path id="yte-0" class="st0" d="M199.6,18.9L199.6,18.9c0.7,0,1.2,0.6,1.2,1.4v31c0,0.8-0.6,1.4-1.2,1.4l0,0
			c-0.7,0-1.2-0.6-1.2-1.4v-31C198.4,19.5,198.9,18.9,199.6,18.9z"/>
	</g>
	<g transform="matrix(1,0,0,1,0,23.901836248542693)">
		<g id="textblocktransform">
			<g>
				<g transform="matrix(1,0,0,1,0,0)">
					<path id="text-0" class="st0" d="M49.2,16.7c-1.3,0-2.2-0.2-2.8-0.6s-0.9-1-0.9-1.6l0,0v-22c0-0.6,0.3-1.1,0.8-1.5
						c0.5-0.4,1.2-0.6,2.2-0.6l0,0h6.1v2.1l-0.6,4.6h-2.5L51.1-7c0-0.2-0.2-0.3-0.5-0.3l0,0h-1.6c-0.5,0-0.9,0.2-1,0.6
						c-0.2,0.4-0.2,1-0.2,1.7l0,0l0.8,18.5c0,0.1,0.1,0.2,0.2,0.2l0,0H51c0.3,0,0.4-0.1,0.5-0.2l0,0l0.7-2.9h2.3v6.2L49.2,16.7
						C49.2,16.8,49.2,16.7,49.2,16.7z M59,17.5V3.7l-2.5-4.4v-8.8h2.4l0.5,10.4l1.3,0.1l0.7-10.5h2.1V0l-2,2.3v15.2H59z M67.8,16
						c-0.5,0-1-0.2-1.4-0.7s-0.6-1.2-0.6-2.1l0,0V-7.6l1.3-2h7.9v5.5h-1.6l-1.1-3.3h-2.5c-1,0-1.5,0.6-1.6,1.7l0,0L69,12.7
						c0,0.2,0.1,0.3,0.2,0.5c0.2,0.1,0.3,0.2,0.5,0.2l0,0h2.7c0.2,0,0.3,0,0.5-0.1c0.2-0.1,0.2-0.2,0.2-0.3l0,0l0.4-7.2l-2.2-0.1
						V3.5l4.2-0.5V16L67.8,16L67.8,16z M79.8-1.5l-0.7-8.1h2.9l-0.3,7.7L79.8-1.5z M85.3,16.7v-2.4h4.2l-0.7-7.8l-3.4-0.9v-9
						c0-0.3,0.1-0.7,0.4-1c0.3-0.3,0.5-0.5,0.8-0.5l0,0h5.1V-3l-4.3,0.6l0.5,6.2l3.8,1v10.2c0,0.4-0.2,0.8-0.7,1.2
						c-0.4,0.4-0.9,0.6-1.3,0.6l0,0L85.3,16.7C85.3,16.7,85.3,16.7,85.3,16.7z M100,16.7V-8.1l-0.8-0.4v-1.1h5.4
						c0.9,0,1.7,0.2,2.4,0.5s1,0.8,1,1.3l0,0V2.7c0,0.3-0.1,0.6-0.3,1c-0.2,0.4-0.6,0.8-1.1,1.1c-0.6,0.4-1.4,0.5-2.4,0.5l0,0h-2
						v11.3H100z M103.2,3.2l1.6-0.4c0.2,0,0.2-0.1,0.2-0.2l0,0l0.4-9.4c0-0.3-0.2-0.6-0.4-0.8c-0.2-0.2-0.6-0.4-1.2-0.4l0,0h-0.6
						c-0.3,0-0.4,0.1-0.4,0.3l0,0V2.9c0,0.1,0,0.1,0.1,0.2C102.9,3.2,103,3.2,103.2,3.2L103.2,3.2z M112.8,16.7l-2.2-1.6V-8.4
						l1.6-1.2h5l1.5,1v24l-2.3,1.3L112.8,16.7L112.8,16.7z M114,14.1h1.6c0.2,0,0.3-0.1,0.3-0.2l0,0l0.4-21.2c0-0.2-0.1-0.3-0.3-0.3
						l0,0H114c-0.2,0-0.3,0.1-0.3,0.3l0,0v21.2C113.6,14.1,113.8,14.1,114,14.1L114,14.1z M127.7,16.9l-0.6-7.3l-2-4.4H124v11.5
						h-2.2V-8.1L121-8.5v-1.1h5.8c0.9,0,1.7,0.2,2.4,0.5s0.9,0.8,1,1.3l0,0l-0.4,10.3c0,0.4-0.2,0.8-0.5,1.3
						c-0.3,0.5-0.9,0.9-1.8,1.2l0,0l2.2,4.1l0.8,7.6L127.7,16.9z M124.9,2.8h2c0.2,0,0.2-0.1,0.2-0.2l0,0l0.2-9.4
						c0-0.3-0.2-0.6-0.5-0.9c-0.3-0.2-1-0.3-2-0.3l0,0c-0.3,0.1-0.4,0.2-0.4,0.4l0,0V2.5c0,0.1,0,0.1,0.1,0.2S124.8,2.8,124.9,2.8
						L124.9,2.8z M134.8,16V-7.7l-2.6-0.5l0.4-1.4h8v2.1h-2.7V16L134.8,16L134.8,16z M142.7,16.7l0.9-26.3h6.8v3.3h-4.6V1h4v1.9
						l-3.9,0.7v13.2L142.7,16.7L142.7,16.7z M154.9,16.7l-2.2-1.6V-8.4l1.6-1.2h5l1.5,1v24l-2.3,1.3L154.9,16.7L154.9,16.7
						L154.9,16.7z M156,14.1h1.6c0.2,0,0.3-0.1,0.3-0.2l0,0l0.4-21.2c0-0.2-0.1-0.3-0.3-0.3l0,0H156c-0.2,0-0.3,0.1-0.3,0.3l0,0
						v21.2C155.7,14.1,155.8,14.1,156,14.1L156,14.1z M163.7,16.7V-9.6h3.6l-0.8,23.3l4.2,0.7v2.4C170.8,16.7,163.7,16.7,163.7,16.7
						z M173,16.7V-6.1l-0.7-1.8v-1.7h3.8l-0.3,26.3L173,16.7L173,16.7z M181.1,16.7l-2.2-1.6V-8.4l1.6-1.2h5l1.5,1v24l-2.3,1.3
						L181.1,16.7L181.1,16.7L181.1,16.7z M182.2,14.1h1.6c0.2,0,0.3-0.1,0.3-0.2l0,0l0.4-21.2c0-0.2-0.1-0.3-0.3-0.3l0,0h-1.9
						c-0.2,0-0.3,0.1-0.3,0.3l0,0v21.2C181.9,14.1,182,14.1,182.2,14.1L182.2,14.1z"/>
				</g>
			</g>
			<g transform="matrix(1,0,0,1,163.31020800000002,93.52508622893083)">
				<g transform="matrix(1,0,0,1,0,0)">
					<path id="text-1" class="st0" d="M-57.3-64.6l1.3-2.3h1.2l-1.5,2.6c1,0.3,1.5,1.1,1.5,2.4l0,0v0.9h-1.1V-62
						c0-0.5-0.2-1-0.5-1.3c-0.3-0.3-0.8-0.4-1.4-0.4l0,0c-0.2,0-0.4,0-0.6,0l0,0v2.6h-1.1v-8.5h1.1v5C-58-64.7-57.7-64.7-57.3-64.6
						L-57.3-64.6z M-50.7-67.1L-50.7-67.1c1.4,0.1,2.1,0.6,2.1,1.7l0,0c0,1.4-0.9,2-2.7,2l0,0h-0.5v-0.9h0.6c0.5,0,0.9-0.1,1.1-0.2
						c0.2-0.2,0.3-0.4,0.3-0.8l0,0c0-0.2-0.1-0.4-0.3-0.6s-0.4-0.2-0.7-0.2l0,0c-0.6,0-1,0.2-1.4,0.6s-0.5,0.9-0.5,1.5l0,0
						c0,0.6,0.2,1.1,0.5,1.5s0.8,0.6,1.4,0.6l0,0c0.5,0,0.9-0.1,1.3-0.4l0,0l0.7,0.7c-0.6,0.5-1.2,0.7-2,0.7l0,0
						c-0.9,0-1.7-0.3-2.2-0.8c-0.5-0.5-0.8-1.2-0.8-2.1l0,0c0-1,0.3-1.7,0.8-2.3S-51.7-67.1-50.7-67.1z M-44.6-67.1L-44.6-67.1
						c1.4,0.1,2.1,0.6,2.1,1.7l0,0c0,1.4-0.9,2-2.7,2l0,0h-0.5v-0.9h0.6c0.5,0,0.9-0.1,1.1-0.2c0.2-0.2,0.3-0.4,0.3-0.8l0,0
						c0-0.2-0.1-0.4-0.3-0.6s-0.4-0.2-0.7-0.2l0,0c-0.6,0-1,0.2-1.4,0.6s-0.5,0.9-0.5,1.5l0,0c0,0.6,0.2,1.1,0.5,1.5
						s0.8,0.6,1.4,0.6l0,0c0.5,0,0.9-0.1,1.3-0.4l0,0l0.7,0.7c-0.6,0.5-1.2,0.7-2,0.7l0,0c-0.9,0-1.7-0.3-2.2-0.8
						c-0.5-0.5-0.8-1.2-0.8-2.1l0,0c0-1,0.3-1.7,0.8-2.3C-46.2-66.8-45.5-67.1-44.6-67.1z M-40.2-58.3h-1.1V-64
						c0-0.4,0.1-0.8,0.2-1.2c0.2-0.4,0.4-0.7,0.6-1c0.3-0.3,0.6-0.5,1-0.7c0.4-0.2,0.8-0.2,1.2-0.2l0,0c0.4,0,0.8,0.1,1.2,0.2
						c0.4,0.2,0.7,0.4,1,0.7c0.3,0.3,0.5,0.6,0.6,1c0.2,0.4,0.2,0.8,0.2,1.2l0,0c0,0.4-0.1,0.8-0.2,1.2s-0.4,0.7-0.6,1
						c-0.3,0.3-0.6,0.5-1,0.7c-0.4,0.2-0.8,0.2-1.2,0.2l0,0c-0.5,0-1-0.1-1.5-0.4l0,0v-1.1c0.4,0.3,0.9,0.4,1.4,0.4l0,0
						c0.3,0,0.6,0,0.8-0.2c0.2-0.1,0.4-0.2,0.6-0.4c0.2-0.2,0.3-0.4,0.4-0.6s0.1-0.5,0.1-0.8l0,0c0-0.3,0-0.6-0.1-0.8
						s-0.2-0.5-0.4-0.6s-0.4-0.3-0.6-0.4s-0.5-0.2-0.8-0.2l0,0c-0.3,0-0.5,0.1-0.8,0.2s-0.4,0.2-0.6,0.4c-0.2,0.2-0.3,0.4-0.4,0.6
						s-0.1,0.5-0.1,0.8l0,0L-40.2-58.3L-40.2-58.3L-40.2-58.3z M-31.1-61.1V-67h5.4c0.6,0,1,0.1,1.4,0.3l0,0
						c0.4,0.2,0.6,0.5,0.7,0.8s0.2,0.8,0.2,1.3l0,0v3.4h-1.1v-3.4c0-0.6-0.2-1.1-0.6-1.3l0,0c-0.2-0.1-0.6-0.2-1.2-0.2l0,0h-0.5v4.8
						h-1.1v-4.8H-30v4.8C-30-61.1-31.1-61.1-31.1-61.1z M-21.4-66.2L-21.4-66.2c0.6-0.6,1.3-0.9,2.1-0.9l0,0c0.4,0,0.8,0.1,1.2,0.2
						c0.4,0.2,0.7,0.4,1,0.7c0.3,0.3,0.5,0.6,0.6,1s0.2,0.8,0.2,1.2l0,0c0,0.4-0.1,0.8-0.2,1.2s-0.4,0.7-0.6,1
						c-0.3,0.3-0.6,0.5-1,0.7c-0.4,0.2-0.8,0.2-1.2,0.2l0,0c-0.4,0-0.8-0.1-1.2-0.2s-0.7-0.4-0.9-0.7c-0.3-0.3-0.5-0.6-0.6-1
						c-0.1-0.4-0.2-0.8-0.2-1.2l0,0C-22.2-64.9-21.9-65.6-21.4-66.2z M-19.2-66.1L-19.2-66.1c-0.6,0-1,0.2-1.4,0.6
						c-0.3,0.4-0.5,0.9-0.5,1.5s0.2,1.1,0.5,1.5s0.8,0.6,1.4,0.6l0,0c0.6,0,1-0.2,1.4-0.6s0.5-0.9,0.5-1.5c0-0.6-0.2-1.1-0.5-1.5
						C-18.2-65.9-18.7-66.1-19.2-66.1z M-14.1-61.1h-1.1v-3.3c0-0.9,0.2-1.6,0.5-1.9l0,0c0.2-0.2,0.4-0.3,0.6-0.4
						c0.2-0.1,0.5-0.1,0.6-0.2c0.2,0,0.4,0,0.8,0l0,0h1.1v1h-1.3c-0.2,0-0.3,0-0.4,0s-0.2,0-0.3,0.1c-0.1,0.1-0.2,0.1-0.3,0.2l0,0
						c-0.1,0.2-0.2,0.6-0.2,1.2l0,0L-14.1-61.1L-14.1-61.1z M-7.9-67.1L-7.9-67.1c1.4,0.1,2.1,0.6,2.1,1.7l0,0c0,1.4-0.9,2-2.7,2
						l0,0H-9v-0.9h0.6c0.5,0,0.9-0.1,1.1-0.2s0.3-0.4,0.3-0.8l0,0c0-0.2-0.1-0.4-0.3-0.6s-0.4-0.2-0.7-0.2l0,0c-0.6,0-1,0.2-1.4,0.6
						s-0.5,0.9-0.5,1.5l0,0c0,0.6,0.2,1.1,0.5,1.5c0.4,0.4,0.8,0.6,1.4,0.6l0,0c0.5,0,0.9-0.1,1.3-0.4l0,0l0.7,0.7
						c-0.6,0.5-1.2,0.7-2,0.7l0,0c-0.9,0-1.7-0.3-2.2-0.8c-0.6-0.5-0.8-1.2-0.8-2.1l0,0c0-1,0.3-1.7,0.8-2.3
						C-9.6-66.8-8.8-67.1-7.9-67.1z M2.8-62.1v-7.5h1.1v8.5H1.1c-0.9,0-1.6-0.3-2.2-0.8c-0.5-0.6-0.8-1.3-0.8-2.1l0,0
						c0-0.8,0.3-1.6,0.9-2.1c0.6-0.6,1.2-0.8,2-0.8l0,0c0.5,0,1,0.1,1.4,0.4l0,0v1.1C2-65.9,1.5-66.1,1-66.1l0,0
						c-0.5,0-0.9,0.2-1.2,0.5s-0.5,0.8-0.5,1.4l0,0c0,0.6,0.2,1.1,0.5,1.4s0.8,0.5,1.4,0.5l0,0L2.8-62.1L2.8-62.1z M8.2-67.1
						L8.2-67.1c1.4,0.1,2.1,0.6,2.1,1.7l0,0c0,1.4-0.9,2-2.7,2l0,0H7.1v-0.9h0.6c0.5,0,0.9-0.1,1.1-0.2s0.3-0.4,0.3-0.8l0,0
						c0-0.2-0.1-0.4-0.3-0.6s-0.4-0.2-0.7-0.2l0,0c-0.6,0-1,0.2-1.4,0.6c-0.3,0.4-0.5,0.9-0.5,1.5l0,0c0,0.6,0.2,1.1,0.5,1.5
						S7.7-62,8.2-62l0,0c0.5,0,0.9-0.1,1.3-0.4l0,0l0.7,0.7C9.7-61.2,9-61,8.2-61l0,0c-0.9,0-1.7-0.3-2.2-0.8
						c-0.6-0.5-0.8-1.2-0.8-2.1l0,0c0-1,0.3-1.7,0.8-2.3S7.3-67.1,8.2-67.1z M14.4-67.1L14.4-67.1c1.4,0.1,2.1,0.6,2.1,1.7l0,0
						c0,1.4-0.9,2-2.7,2l0,0h-0.5v-0.9h0.6c0.5,0,0.9-0.1,1.1-0.2s0.3-0.4,0.3-0.8l0,0c0-0.2-0.1-0.4-0.3-0.6s-0.4-0.2-0.7-0.2l0,0
						c-0.6,0-1,0.2-1.4,0.6s-0.5,0.9-0.5,1.5l0,0c0,0.6,0.2,1.1,0.5,1.5c0.4,0.4,0.8,0.6,1.4,0.6l0,0c0.5,0,0.9-0.1,1.3-0.4l0,0
						l0.7,0.7c-0.6,0.5-1.2,0.7-2,0.7l0,0c-0.9,0-1.7-0.3-2.2-0.8c-0.6-0.5-0.8-1.2-0.8-2.1l0,0c0-1,0.3-1.7,0.8-2.3
						C12.7-66.8,13.4-67.1,14.4-67.1z M18.8-58.3h-1.1V-64c0-0.4,0.1-0.8,0.2-1.2s0.4-0.7,0.6-1c0.3-0.3,0.6-0.5,1-0.7
						c0.4-0.2,0.8-0.2,1.2-0.2l0,0c0.4,0,0.8,0.1,1.2,0.2c0.4,0.2,0.7,0.4,1,0.7c0.3,0.3,0.5,0.6,0.6,1s0.2,0.8,0.2,1.2l0,0
						c0,0.4-0.1,0.8-0.2,1.2s-0.4,0.7-0.6,1c-0.3,0.3-0.6,0.5-1,0.7c-0.4,0.2-0.8,0.2-1.2,0.2l0,0c-0.5,0-1-0.1-1.5-0.4l0,0v-1.1
						c0.4,0.3,0.9,0.4,1.4,0.4l0,0c0.3,0,0.6,0,0.8-0.2c0.2-0.1,0.4-0.2,0.6-0.4c0.2-0.2,0.3-0.4,0.4-0.6s0.1-0.5,0.1-0.8l0,0
						c0-0.3,0-0.6-0.1-0.8c-0.1-0.2-0.2-0.5-0.4-0.6s-0.4-0.3-0.6-0.4s-0.5-0.2-0.8-0.2l0,0c-0.3,0-0.5,0.1-0.8,0.2
						c-0.2,0.1-0.4,0.2-0.6,0.4c-0.2,0.2-0.3,0.4-0.4,0.6c-0.1,0.2-0.1,0.5-0.1,0.8l0,0L18.8-58.3L18.8-58.3L18.8-58.3z"/>
				</g>
			</g>
		</g>
	</g>
	<g transform="matrix(1,0,0,1,438.06774407655854,0)">
		<g>
			<g>
				<path class="st0" d="M-182.6,20l-6.9-7c-0.4-0.4-1.1-0.4-1.6,0l-4.3,4.3c-0.3-1.2-1.4-2-2.7-2h-26.2c-1.6,0-2.8,1.2-2.8,2.8
					v20.8c0,1.5,1.2,2.8,2.8,2.8h4.5l-1.4,1.3c0,0,0,0,0,0l0,0c0,0-0.1,0.1-0.1,0.1c0,0-0.1,0.1-0.1,0.2c0,0-0.1,0.1-0.1,0.1
					c0,0,0,0,0,0l-3.5,10.4c-0.2,0.6,0.1,1.2,0.7,1.4c0.2,0.1,0.5,0.1,0.7,0l10.4-3.5c0,0,0,0,0,0c0.1,0,0.1-0.1,0.2-0.1
					c0,0,0,0,0,0c0.1,0,0.1-0.1,0.2-0.2l9.9-9.9h4.7c1.5,0,2.8-1.3,2.8-2.8v-4.7l6.7-6.7c0.1-0.1,0.1-0.1,0.2-0.2l5.8-5.8
					C-182.2,21.1-182.2,20.4-182.6,20L-182.6,20 M-197.5,38.9c0,0.3-0.3,0.6-0.6,0.6h-2.4l3-3V38.9L-197.5,38.9z M-196.4,21.4l2,2
					l-22.4,22.5l-2-2L-196.4,21.4z M-224.9,38.9V18.1c0-0.3,0.3-0.6,0.6-0.6h26.2c0.3,0,0.6,0.3,0.6,0.6l0,0v1.3l-20.1,20.1h-6.7
					C-224.6,39.5-224.9,39.3-224.9,38.9 M-222.1,52.6l2.2-6.7l4.4,4.4L-222.1,52.6z M-197.2,33L-197.2,33l-1.2,1.2l-15.1,15
					l-1.8-1.8l22.4-22.5l1.8,1.8L-197.2,33z M-189.4,25.2l-5.4-5.4l4.5-4.5l5.4,5.4L-189.4,25.2z"/>
				<path class="st0" d="M-216.8,23.9c0-0.3-0.1-0.6-0.3-0.8l-2.6-2.6c-0.4-0.4-1.1-0.4-1.6,0c-0.4,0.4-0.4,1.1,0,1.5l1.9,1.9
					l-1.9,1.9c-0.4,0.4-0.4,1.1,0,1.6l0,0c0.4,0.4,1.1,0.4,1.6,0c0,0,0,0,0,0l2.6-2.6C-216.9,24.4-216.8,24.1-216.8,23.9"/>
				<path class="st0" d="M-215.2,27.6h3.2c0.6,0,1.1-0.5,1.1-1.1c0-0.6-0.5-1.1-1.1-1.1h-3.2c-0.6,0-1.1,0.5-1.1,1.1
					C-216.3,27.1-215.8,27.6-215.2,27.6"/>
			</g>
		</g>
	</g>
</g>
<rect x="45.4" y="5.8" class="st1" width="221.6" height="61.9"/>
</svg>
