<?xml version="1.0" encoding="utf-8"?>
<!-- Generator: Adobe Illustrator 27.0.0, SVG Export Plug-In . SVG Version: 6.00 Build 0)  -->
<svg version="1.1" id="Layer_1" xmlns="http://www.w3.org/2000/svg" xmlns:xlink="http://www.w3.org/1999/xlink" x="0px" y="0px"
	 viewBox="0 0 800 800" style="enable-background:new 0 0 800 800;" xml:space="preserve">
<style type="text/css">
	.st0{fill-rule:evenodd;clip-rule:evenodd;fill:#FFFFFF;}
</style>
<path class="st0" d="M285.8,66.7c-23.7,0-45.6,12.6-57.6,33.1L15,465.2c-12.8,22-12,49.4,2.1,70.6L129,703.6
	c12.4,18.5,33.2,29.7,55.5,29.7h431c22.3,0,43.1-11.1,55.5-29.7l111.9-167.8c14.1-21.2,14.9-48.6,2.1-70.6L571.8,99.7
	c-11.9-20.5-33.9-33.1-57.6-33.1H285.8z M326.8,133.3h187.4l194.4,333.3H535.1L326.8,133.3z M456.5,466.7L397,371.4l-55.6,95.3
	H456.5z M302.5,533.3l-77.8,133.3h390.8l88.9-133.3H302.5z M357,307.5L164.8,637.1L72.6,498.8l195-334.4L357,307.5z"/>
</svg>
