<?xml version="1.0" encoding="utf-8"?>
<!-- Generator: Adobe Illustrator 27.0.0, SVG Export Plug-In . SVG Version: 6.00 Build 0)  -->
<svg version="1.1" id="Layer_1" xmlns="http://www.w3.org/2000/svg" xmlns:xlink="http://www.w3.org/1999/xlink" x="0px" y="0px"
	 viewBox="0 0 800 800" style="enable-background:new 0 0 800 800;" xml:space="preserve">
<style type="text/css">
	.st0{display:none;fill:none;}
	.st1{fill:#FFFFFF;}
</style>
<g>
	<path class="st0" d="M0,0h800v800H0V0z"/>
	<path class="st1" d="M400,100c193.3,0,350,122.1,350,272.8c0,150.7-156.7,272.8-350,272.8c-19.2,0-38.5-1.2-57.6-3.7l-146.9,96.1
		c-16.7,8.8-22.6,7.9-15.7-13.8l29.7-122.6C113.5,553,50,468.7,50,372.8C50,222.2,206.7,100,400,100z M596.9,368.7l49-47.5
		c6-6.3,5.8-16.2-0.4-22.2c-5.9-5.7-15.3-5.9-21.4-0.4l-64.3,62.2v-51.4c0-8.7-7-15.7-15.7-15.7c-8.7,0-15.7,7-15.7,15.7v85.2
		c-0.6,2.4-0.6,5,0,7.4v48c0,8.7,7,15.7,15.7,15.7c8.7,0,15.7-7,15.7-15.7v-45.4l14.2-13.8l47.6,67.8c5,7.1,14.8,8.8,21.9,3.8
		c7.1-5,8.8-14.8,3.8-21.9L596.9,368.7L596.9,368.7z M498.3,432.8h-48.7V309.9c-0.4-8.7-7.8-15.4-16.4-15c-8.1,0.4-14.6,6.9-15,15
		v138.6c0,8.7,7,15.7,15.7,15.7h64.4c8.7,0,15.7-7,15.7-15.7S507,432.8,498.3,432.8L498.3,432.8z M303.1,396.4l23.2-56.9l21.3,56.9
		H303.1L303.1,396.4z M387.2,412.7l0.1-0.5c0-4-1.5-7.8-4.2-10.7l-34.9-93.3c-3-9.1-11.3-15.4-20.9-15.8c-9.6,0-18.3,5.9-21.8,14.9
		l-55.4,135.8c-3.3,8,0.6,17.2,8.6,20.5c8,3.3,17.2-0.6,20.5-8.6l11-27.1h69l10,26.7c2.8,8.2,11.7,12.6,20,9.8
		c8.2-2.8,12.6-11.7,9.8-20c-0.1-0.3-0.2-0.6-0.3-0.9L387.2,412.7L387.2,412.7z M276.4,310.1c0-8.7-7-15.7-15.7-15.7H152.6
		c-8.7,0-15.7,7-15.7,15.7s7,15.7,15.7,15.7l0,0h38.7v124.5c0,8.7,7.1,15.7,15.7,15.7c8.7,0,15.7-7,15.7-15.7V325.8h38
		C269.4,325.8,276.4,318.7,276.4,310.1L276.4,310.1z"/>
</g>
</svg>
