<?xml version="1.0" encoding="utf-8"?>
<!-- Generator: Adobe Illustrator 27.0.0, SVG Export Plug-In . SVG Version: 6.00 Build 0)  -->
<svg version="1.1" id="Layer_1" xmlns="http://www.w3.org/2000/svg" xmlns:xlink="http://www.w3.org/1999/xlink" x="0px" y="0px"
	 viewBox="0 0 24 24" style="enable-background:new 0 0 24 24;" xml:space="preserve">
<style type="text/css">
	.st0{fill:#FFFFFF;}
</style>
<path class="st0" d="M10.2,17.3c-0.2,0-0.4-0.1-0.6-0.2c-0.2-0.1-0.2-0.3-0.2-0.6v-9c0-0.2,0.1-0.4,0.2-0.6s0.4-0.2,0.6-0.2
	c0.1,0,0.2,0.1,0.6,0.2l4.2,4.2c0.1,0.1,0.2,0.2,0.2,0.4s0.1,0.3,0.1,0.4c0,0.1,0,0.3-0.1,0.4s-0.1,0.3-0.2,0.4L10.8,17
	c-0.1,0.1-0.2,0.1-0.3,0.2C10.4,17.3,10.3,17.3,10.2,17.3z"/>
</svg>
