<?xml version="1.0" encoding="utf-8"?>
<!-- Generator: Adobe Illustrator 27.0.0, SVG Export Plug-In . SVG Version: 6.00 Build 0)  -->
<svg version="1.1" id="Layer_1" xmlns="http://www.w3.org/2000/svg" xmlns:xlink="http://www.w3.org/1999/xlink" x="0px" y="0px"
	 viewBox="0 0 800 800" style="enable-background:new 0 0 800 800;" xml:space="preserve">
<style type="text/css">
	.st0{fill:#FFFFFF;}
	.st1{fill-rule:evenodd;clip-rule:evenodd;fill:#FFFFFF;}
</style>
<path class="st0" d="M333.3,566.7H300v-250l173.9,260.9c15.6,23.4,44.3,34.5,71.6,27.7l8.5-2.1c7.4-1.9,12.6-8.5,12.6-16.2V233.3
	c0,0,33.3,0,33.3-33.3H500c-33.3,0-33.3,33.3-33.3,33.3H500v200L338.3,207c-3.1-4.4-8.2-7-13.6-7h-91.4c-33.3,0-33.3,33.3-33.3,33.3
	h33.3v333.3c0,0-33.3,0-33.3,33.3h100C333.3,600,333.3,566.7,333.3,566.7z"/>
<path class="st1" d="M33.3,133.3c0-55.2,44.8-100,100-100h533.3c55.2,0,100,44.8,100,100v533.3c0,55.2-44.8,100-100,100H133.3
	c-55.2,0-100-44.8-100-100V133.3z M133.3,100h533.3c18.4,0,33.3,14.9,33.3,33.3v533.3c0,18.4-14.9,33.3-33.3,33.3H133.3
	c-18.4,0-33.3-14.9-33.3-33.3V133.3C100,114.9,114.9,100,133.3,100z"/>
</svg>
